<?xml version="1.0" encoding="utf-8"?>
<!-- Generator: Adobe Illustrator 22.1.0, SVG Export Plug-In . SVG Version: 6.00 Build 0)  -->
<svg version="1.1" id="Layer_1" xmlns="http://www.w3.org/2000/svg" xmlns:xlink="http://www.w3.org/1999/xlink" x="0px" y="0px"
	 viewBox="0 0 590.6 650.8" style="enable-background:new 0 0 590.6 650.8;" xml:space="preserve">
<style type="text/css">
	.st0{fill:#F1F1F1;}
	.st1{fill:#D18C65;}
	.st2{fill:#3A7291;}
	.st3{fill:#E0E0E0;}
	.st4{fill:#A4A4A4;}
	.st5{fill:none;stroke:#FFFFFF;stroke-width:2.04;stroke-linecap:round;stroke-linejoin:round;}
	.st6{fill:#FFFFFF;}
	.st7{fill:#E49D75;}
	.st8{fill:#5FC5D1;}
	.st9{fill:#5B4020;}
	.st10{fill:#6BD5E1;}
	.st11{fill:#FFC78E;}
	.st12{fill:#FFD98E;}
	.st13{fill:#FFE4AD;}
	.st14{fill:#FD8369;}
</style>
<title>social-feed-colour</title>
<g id="Layer_2_1_">
	<g id="vector">
		<path class="st0" d="M563.3,136.6c35.1,41.5,31.2,115.8,16.8,175.4c-14.5,59.7-39.6,105-74.8,159S425,587.9,365.2,602.4
			S231.4,583,166.2,529S44.6,400.7,29.6,311.6C14.6,222.3,40.8,118,106,76.5s169.5-20.3,258.8-5.3
			C453.9,86.3,528.2,95.1,563.3,136.6z"/>
		<path class="st1" d="M284.5,201.7c-1.4,6.6,0.1,54.3-1.9,61.8s-23.8,99.3-23.8,99.3l34.8-9.6c0,0,12.2-26.8,16.6-50.9
			C314.1,281,313.6,202.1,284.5,201.7z"/>
		<polygon class="st2" points="250.8,222.7 228.2,222.7 215.3,173.7 237.9,173.7 		"/>
		<rect x="297.8" y="359" class="st3" width="245.1" height="245.1"/>
		<circle class="st4" cx="343.2" cy="407.9" r="24.7"/>
		<line class="st5" x1="388.7" y1="397.3" x2="513.9" y2="397.3"/>
		<line class="st5" x1="388.7" y1="418.5" x2="444.2" y2="418.5"/>
		<line class="st5" x1="388.7" y1="470.9" x2="513.9" y2="470.9"/>
		<line class="st5" x1="388.7" y1="492.1" x2="444.2" y2="492.1"/>
		<line class="st5" x1="388.7" y1="544.6" x2="513.9" y2="544.6"/>
		<line class="st5" x1="388.7" y1="565.7" x2="444.2" y2="565.7"/>
		<circle class="st6" cx="343.2" cy="481.5" r="24.7"/>
		<circle class="st6" cx="343.2" cy="555.2" r="24.7"/>
		<polygon class="st7" points="63.8,589.6 86.9,576.3 101.5,603 74.6,616.3 		"/>
		<polygon class="st7" points="232.9,576.3 238.1,605.8 269.3,600.5 259,567 		"/>
		<path class="st8" d="M310.1,341.3c-9.2,0.5-159.8,33.2-161.8,40.9c-16.1,62.9,76,195,82.8,199c7.3-1.8,32.2-10.4,32.2-10.4
			l-5.7-88.1L310.1,341.3z"/>
		<polygon class="st9" points="81.4,620.4 63,581.9 12.9,534 0,541.1 49.6,636.1 		"/>
		<polygon class="st9" points="271.6,593.4 229.6,600.9 170.1,636.4 173.5,650.8 278.3,628.3 		"/>
		<path class="st10" d="M426.3,302.2c5.9,4.7,12,25.8,12.7,33c7.7,83.2-129.2,132.2-148.2,140.4c-18,15-175,130.8-184.6,133.5
			s-25.2-34-23.8-38.9S313.9,334,313.9,334L426.3,302.2z"/>
		<path class="st11" d="M316.2,152.5c-19.4-9.6-37.3,42.9-35.6,48.9s19.5,7.7,24,7.7S316.2,152.5,316.2,152.5z"/>
		<path class="st12" d="M353.3,122.4c70.7,0,77.4,168.6,76.6,180.1c-7.1,23.4-92.8,51.6-119.1,36.2
			C268.9,240.6,288.2,122.4,353.3,122.4z"/>
		<path class="st7" d="M423.9,205.5c4,6.7,12.5,50.7,11.6,56.4s-14,20.2-18.7,20.5c-66.5,4.5-138.7-22.1-152.2-29.5
			c-28.2-2.3-44.9-12.4-44.9-27.3c0-8.8,4.9-15.1,7.6-15.1c5.1,0,14.2,8.8,15.3,11.4c-2.2-4.5-9.1-12.8-3.4-12.8
			c1.6,0,14.4,17.9,21.4,22.3c7,4.4,107.4,8,127.6,15.3c-2.6-5.1-9.8-23.7-9.9-26.4S423.9,205.5,423.9,205.5z"/>
		<path class="st13" d="M373.7,135.8c30.6-11.2,54.8,59.5,53.8,68.5s-50,24.6-55.5,21.4S343.3,146.9,373.7,135.8z"/>
		<path class="st1" d="M355.3,91.7c-0.3,4.3,2.3,28,6.3,35.8c-1.8,3.5-20.2,13.8-29,11.6c-1.2-6.6-4.4-24.3-7-29.6
			C330.4,106.9,355.3,91.7,355.3,91.7z"/>
		
			<ellipse transform="matrix(0.9665 -0.2565 0.2565 0.9665 -5.6382 84.1589)" class="st7" cx="319.8" cy="63.7" rx="40.1" ry="50.3"/>
		<path class="st14" d="M338.7,63.1c-2.2,0.1-10.7-4.2-12.6-17.2c-6.1-1-33,1.9-47.2,13c-5.2,2-9.5,3.7-17.4,3.7
			c-3.8,0-6.9-3.9-6.9-6.6c0-7.4,3.2-14.6,12.5-15.1c-7.8-0.2-15.1-5-15.1-8.6c0-4.7,10.8-19.2,29.5-12.9c-4.4-3.2-9.4-6.3-9.4-9.3
			C272.1,5,279.6,0,292.5,0c20,0,41.9,8.3,46.6,14.3c2.2-1.1,5-3.3,10.4-3.3c13.4,0,17.8,43.3,12.1,57.8c-1.4,0.9-3,1.5-4.7,1.8"/>
		<path class="st7" d="M338.3,64c1.8-5.1,7.4-7.8,12.6-6s7.8,7.4,6,12.6c-1.8,5.1-7.4,7.8-12.6,6c-0.4-0.1-0.7-0.3-1-0.4"/>
	</g>
</g>
</svg>
